<svg xmlns="http://www.w3.org/2000/svg" xmlns:xlink="http://www.w3.org/1999/xlink" width="500" zoomAndPan="magnify" viewBox="0 0 375 374.999991" height="500" preserveAspectRatio="xMidYMid meet" version="1.0"><defs><clipPath id="151fef0e1d"><path d="M 94.410156 53.800781 L 280.410156 53.800781 L 280.410156 321.550781 L 94.410156 321.550781 Z M 94.410156 53.800781 " clip-rule="nonzero"/></clipPath></defs><g clip-path="url(#151fef0e1d)"><path fill="#ffffff" d="M 280.394531 146.996094 C 280.394531 95.550781 238.738281 53.800781 187.410156 53.800781 C 136.082031 53.800781 94.425781 95.550781 94.425781 146.996094 C 94.425781 192.847656 127.527344 230.964844 171.046875 238.792969 L 171.046875 256.964844 L 139.335938 256.964844 L 139.335938 289.769531 L 171.046875 289.769531 L 171.046875 321.550781 L 203.777344 321.550781 L 203.777344 289.769531 L 235.484375 289.769531 L 235.484375 256.964844 L 203.777344 256.964844 L 203.777344 238.792969 C 247.292969 230.964844 280.394531 192.847656 280.394531 146.996094 Z M 127.992188 146.996094 C 127.992188 114.097656 154.585938 87.441406 187.410156 87.441406 C 220.234375 87.441406 246.828125 114.097656 246.828125 146.996094 C 246.828125 179.890625 220.234375 206.546875 187.410156 206.546875 C 154.585938 206.546875 127.992188 179.890625 127.992188 146.996094 Z M 127.992188 146.996094 " fill-opacity="1" fill-rule="nonzero"/></g></svg>