<svg xmlns="http://www.w3.org/2000/svg" xmlns:xlink="http://www.w3.org/1999/xlink" width="500" zoomAndPan="magnify" viewBox="0 0 375 374.999991" height="500" preserveAspectRatio="xMidYMid meet" version="1.0"><defs><clipPath id="08559def8f"><path d="M 142.796875 144.699219 L 232 144.699219 L 232 230.199219 L 142.796875 230.199219 Z M 142.796875 144.699219 " clip-rule="nonzero"/></clipPath></defs><g clip-path="url(#08559def8f)"><path fill="#0a53ac" d="M 231.675781 195.789062 C 231.675781 193.5625 230.792969 191.488281 229.269531 189.953125 C 231 188.058594 231.878906 185.515625 231.636719 182.878906 C 231.207031 178.167969 226.960938 174.476562 221.980469 174.476562 L 199.109375 174.476562 C 200.234375 171.035156 202.050781 164.726562 202.050781 159.65625 C 202.050781 151.617188 195.226562 144.832031 190.941406 144.832031 C 187.09375 144.832031 184.339844 146.996094 184.226562 147.089844 C 183.785156 147.445312 183.535156 147.976562 183.535156 148.539062 L 183.535156 161.101562 L 172.867188 184.226562 L 172.425781 184.449219 L 172.425781 183.742188 C 172.425781 182.71875 171.59375 181.890625 170.574219 181.890625 L 152.054688 181.890625 C 146.953125 181.890625 142.796875 186.046875 142.796875 191.152344 L 142.796875 220.796875 C 142.796875 225.902344 146.953125 230.0625 152.054688 230.0625 L 163.164062 230.0625 C 167.171875 230.0625 170.589844 227.503906 171.882812 223.941406 C 174.964844 225.527344 179.113281 226.359375 181.6875 226.359375 L 215.679688 226.359375 C 219.710938 226.359375 223.238281 223.636719 224.066406 219.886719 C 224.492188 217.957031 224.246094 216.011719 223.398438 214.320312 C 226.132812 212.941406 227.972656 210.121094 227.972656 206.90625 C 227.972656 205.59375 227.675781 204.335938 227.105469 203.199219 C 229.835938 201.820312 231.675781 199 231.675781 195.789062 Z M 163.164062 226.355469 L 152.054688 226.355469 C 148.988281 226.355469 146.5 223.863281 146.5 220.796875 L 146.5 191.152344 C 146.5 188.089844 148.992188 185.59375 152.054688 185.59375 L 152.054688 185.613281 L 168.714844 185.613281 L 168.714844 187.464844 C 168.714844 187.476562 168.722656 187.484375 168.722656 187.496094 L 168.722656 220.796875 C 168.722656 223.863281 166.226562 226.355469 163.164062 226.355469 Z M 223.863281 200.363281 C 223.148438 200.445312 222.542969 200.933594 222.320312 201.617188 C 222.09375 202.300781 222.277344 203.054688 222.804688 203.546875 C 223.75 204.441406 224.265625 205.632812 224.265625 206.910156 C 224.265625 209.242188 222.503906 211.210938 220.164062 211.476562 C 219.449219 211.558594 218.84375 212.046875 218.621094 212.730469 C 218.394531 213.414062 218.578125 214.167969 219.105469 214.660156 C 220.328125 215.8125 220.816406 217.429688 220.449219 219.085938 C 219.992188 221.148438 217.984375 222.648438 215.675781 222.648438 L 181.683594 222.648438 C 178.929688 222.648438 174.5 221.460938 172.425781 219.914062 L 172.425781 188.601562 L 175.09375 187.269531 C 175.46875 187.082031 175.769531 186.769531 175.945312 186.386719 L 187.054688 162.300781 C 187.167969 162.058594 187.226562 161.792969 187.226562 161.527344 L 187.226562 149.566406 C 187.996094 149.140625 189.332031 148.558594 190.929688 148.558594 C 192.957031 148.558594 198.335938 153.609375 198.335938 159.675781 C 198.335938 166.191406 194.792969 175.597656 194.753906 175.691406 C 194.539062 176.257812 194.613281 176.898438 194.960938 177.398438 C 195.3125 177.898438 195.878906 178.199219 196.488281 178.199219 L 221.972656 178.199219 C 225.058594 178.199219 227.679688 180.40625 227.941406 183.230469 C 228.136719 185.34375 227.128906 187.351562 225.308594 188.472656 C 224.738281 188.820312 224.402344 189.457031 224.429688 190.121094 C 224.453125 190.789062 224.835938 191.390625 225.433594 191.699219 C 226.996094 192.496094 227.964844 194.070312 227.964844 195.796875 C 227.960938 198.128906 226.199219 200.097656 223.863281 200.363281 Z M 223.863281 200.363281 " fill-opacity="1" fill-rule="nonzero"/></g></svg>