<svg xmlns="http://www.w3.org/2000/svg" xmlns:xlink="http://www.w3.org/1999/xlink" width="500" zoomAndPan="magnify" viewBox="0 0 375 374.999991" height="500" preserveAspectRatio="xMidYMid meet" version="1.0"><defs><clipPath id="13783fc510"><path d="M 65.03125 70.234375 L 310 70.234375 L 310 304.984375 L 65.03125 304.984375 Z M 65.03125 70.234375 " clip-rule="nonzero"/></clipPath></defs><g clip-path="url(#13783fc510)"><path fill="#0a53ac" d="M 309.261719 210.507812 C 309.261719 204.394531 306.828125 198.699219 302.648438 194.488281 C 307.398438 189.289062 309.8125 182.308594 309.148438 175.066406 C 307.96875 162.136719 296.308594 152.003906 282.621094 152.003906 L 219.769531 152.003906 C 222.863281 142.554688 227.851562 125.230469 227.851562 111.3125 C 227.851562 89.246094 209.097656 70.621094 197.320312 70.621094 C 186.75 70.621094 179.1875 76.5625 178.871094 76.816406 C 177.660156 77.792969 176.96875 79.25 176.96875 80.792969 L 176.96875 115.28125 L 147.660156 178.769531 L 146.441406 179.378906 L 146.441406 177.4375 C 146.441406 174.628906 144.160156 172.351562 141.351562 172.351562 L 90.46875 172.351562 C 76.449219 172.351562 65.03125 183.765625 65.03125 197.78125 L 65.03125 279.164062 C 65.03125 293.183594 76.449219 304.597656 90.46875 304.597656 L 121 304.597656 C 132.011719 304.597656 141.402344 297.578125 144.953125 287.792969 C 153.421875 292.144531 164.820312 294.433594 171.890625 294.433594 L 265.300781 294.433594 C 276.382812 294.433594 286.070312 286.957031 288.347656 276.664062 C 289.519531 271.363281 288.839844 266.023438 286.519531 261.382812 C 294.027344 257.597656 299.085938 249.855469 299.085938 241.027344 C 299.085938 237.425781 298.261719 233.976562 296.695312 230.855469 C 304.203125 227.070312 309.261719 219.328125 309.261719 210.507812 Z M 121 294.425781 L 90.46875 294.425781 C 82.042969 294.425781 75.207031 287.578125 75.207031 279.164062 L 75.207031 197.78125 C 75.207031 189.371094 82.054688 182.523438 90.46875 182.523438 L 90.46875 182.574219 L 136.242188 182.574219 L 136.242188 187.660156 C 136.242188 187.691406 136.265625 187.710938 136.265625 187.742188 L 136.265625 279.164062 C 136.265625 287.578125 129.40625 294.425781 121 294.425781 Z M 287.789062 223.070312 C 285.824219 223.296875 284.167969 224.628906 283.546875 226.511719 C 282.925781 228.382812 283.433594 230.457031 284.878906 231.8125 C 287.472656 234.261719 288.898438 237.539062 288.898438 241.039062 C 288.898438 247.445312 284.054688 252.847656 277.625 253.582031 C 275.660156 253.804688 274 255.136719 273.378906 257.019531 C 272.757812 258.890625 273.269531 260.964844 274.714844 262.320312 C 278.070312 265.484375 279.414062 269.917969 278.40625 274.464844 C 277.15625 280.132812 271.640625 284.25 265.289062 284.25 L 171.882812 284.25 C 164.320312 284.25 152.148438 280.984375 146.441406 276.742188 L 146.441406 190.785156 L 153.777344 187.121094 C 154.804688 186.601562 155.628906 185.746094 156.117188 184.699219 L 186.648438 118.578125 C 186.953125 117.914062 187.113281 117.183594 187.113281 116.449219 L 187.113281 83.613281 C 189.230469 82.441406 192.90625 80.84375 197.292969 80.84375 C 202.867188 80.84375 217.644531 94.710938 217.644531 111.363281 C 217.644531 129.257812 207.90625 155.078125 207.804688 155.332031 C 207.214844 156.886719 207.417969 158.648438 208.375 160.019531 C 209.332031 161.394531 210.886719 162.21875 212.566406 162.21875 L 282.589844 162.21875 C 291.078125 162.21875 298.28125 168.28125 298.992188 176.03125 C 299.535156 181.832031 296.765625 187.34375 291.757812 190.425781 C 290.191406 191.382812 289.277344 193.125 289.347656 194.953125 C 289.40625 196.785156 290.464844 198.433594 292.105469 199.277344 C 296.398438 201.476562 299.066406 205.789062 299.066406 210.527344 C 299.054688 216.9375 294.210938 222.339844 287.789062 223.070312 Z M 287.789062 223.070312 " fill-opacity="1" fill-rule="nonzero"/></g></svg>