<svg xmlns="http://www.w3.org/2000/svg" width="150" height="150"><defs><clipPath id="a"><path d="M60.398 35.285H91v43.113H60.398zm0 0"/></clipPath></defs><path d="M0 0h150v150H0z"/><g clip-path="url(#a)"><path d="M72.64 78.375c.7-.05 1.383-.188 2.036-.438-4.305-.93-5.461-5.718-4.52-9.57.524-2.152 1.887-4.062 3.227-5.738 1.949-2.438 2.52-5.05 3.195-8-.312 2.156-.031 4.387 1.156 6.25.805 1.273 1.946 2.305 2.84 3.516 1.676 2.273 2.27 5.066 2.09 7.87-.281 4.36-3.168 5.766-3.937 5.477 3.511 1.313 12.117-1.445 12.242-10.586.039-2.734-.485-6.812-2.297-8.86.734 1.407.062 5.333-1.563 6.142.098-4.036-1.363-6.54-2.687-9.372-1.29-2.765-2.149-5.949-.918-8.886-.77.629-1.043 1.883-1.508 2.734a34.091 34.091 0 01-2.086 3.324c.524-5.922-1.066-12.008-4.414-16.922 1.094 1.606 1.086 3.75.527 5.61-.562 1.855-1.609 3.523-2.511 5.242-.903 1.723-1.758 3.223-1.703 5.16a15.092 15.092 0 01.515-8.64c-2.797 1.828-3.273 5.671-3.332 9.007-.062 3.336-.156 7.102-2.613 9.367.594-3.453.73-6.453-.734-7.605.32 2.574-.692 4.926-2.418 6.863-4.317 4.852-2.914 11.938.437 15.211 2.043 2 5.879 3.051 8.977 2.844" fill="#ff5757"/></g><path d="M65.527 88.758h5.38l-6.552 12.453v5.766H58.95v-5.66l-6.672-12.56h5.407l3.972 7.434zm17.071-.336c1.87 0 3.566.41 5.082 1.226 1.515.813 2.703 1.934 3.562 3.36.86 1.43 1.29 3.039 1.29 4.82 0 1.805-.43 3.43-1.29 4.875-.86 1.445-2.047 2.582-3.562 3.406-1.516.82-3.211 1.23-5.082 1.23-1.887 0-3.586-.41-5.094-1.23a9.17 9.17 0 01-3.543-3.406c-.86-1.445-1.285-3.07-1.285-4.875 0-1.781.426-3.39 1.285-4.82.86-1.426 2.039-2.547 3.543-3.36 1.508-.816 3.207-1.226 5.094-1.226zm.082 4.5c-.797 0-1.535.219-2.223.648-.687.43-1.23 1.024-1.64 1.778-.403.754-.606 1.59-.606 2.511 0 .918.203 1.758.605 2.52.41.762.954 1.363 1.641 1.805a4.034 4.034 0 002.223.664 3.85 3.85 0 002.168-.664 4.551 4.551 0 001.57-1.793c.383-.754.574-1.598.574-2.532 0-.921-.191-1.757-.574-2.511-.379-.754-.898-1.348-1.555-1.778a3.92 3.92 0 00-2.183-.648zm18.449 6.519c0 1.024.293 1.848.879 2.473.594.625 1.328.934 2.215.934.863 0 1.574-.309 2.129-.918.554-.618.832-1.446.832-2.489V88.758h5.406V99.44c0 1.598-.34 2.989-1.024 4.176-.683 1.184-1.66 2.098-2.925 2.75-1.262.649-2.735.973-4.418.973-1.7 0-3.188-.324-4.47-.973-1.284-.652-2.276-1.566-2.976-2.75-.699-1.187-1.05-2.578-1.05-4.176V88.758h5.402zm0 0" fill="#fff"/><path d="M93.766 117.809c.164-.168.402-.301.57-.47 1.61-1.206 3.02-2.753 4.43-4.698.066-.168.367-.942.234-.942-.066 0-.133.035-.27.203-1.039 1.141-2.414 2.918-3.457 3.895-.671.672-2.046 1.508-2.918 1.844-.27.101-.539.203-.808.37-.3.134-.602.134-.906.235-.133.035-.266.035-.403.035a1.9 1.9 0 01-.738-.136c-.102-.032-.168-.133-.203-.235-.133-.469-.2-.972-.266-1.441-.035-.137.031-.27.031-.371.036-.102.07-.235.07-.336 0-.336.102-.637.2-.973.54-1.879 1.445-4.129 2.856-5.539.199-.234.468-.438.636-.703.469-.672 1.176-1.277 1.848-1.715.031.035.133.066.2.102.066 0 .136.035.167.066.203.168.234.402.203.64-.101.4-.37.704-.57 1.04a1.735 1.735 0 00-.238.3c-.133.204-.067.403.168.403h.57c.172.035.305-.067.406-.168.266-.235.402-.57.535-.871.403-.875-.133-1.813-.972-2.047-.204-.035-.403-.102-.606-.102-.133 0-.234 0-.367.067-.066.035-.137.035-.203.035h-.2c-.238.031-.472.101-.64.234-1.008.672-2.414 2.25-2.953 3.356-.774 1.343-1.375 2.718-1.781 4.195-.133.64-.301 1.277-.301 1.95 0 .906.234 1.374.605 2.148.301.636.871.87 1.477 1.105.066.035.133 0 .203.035.469 0 .973-.066 1.375-.336.066-.03.133-.03.203-.066.336-.102.637-.203.836-.504.137-.133.27-.203.406-.3.2-.137.399-.169.57-.305zm-3.625-7.317c.03-.066.066-.101.097-.168a.4.4 0 01.035.2c0 .07-.035.101-.101.136h-.031c-.07-.066-.036-.137 0-.168zm-.606 1.344c0-.102-.035-.203.098-.234 0 .097 0 .199-.098.234zm-.37.637c0-.067.034-.102.1-.102 0 .067 0 .102-.03.137 0 .031 0 .031-.036.066 0-.035-.035-.066-.035-.101zm.737-1.278c-.03.07-.066.102-.097.102v-.133c0-.035.03-.035.03-.07.036.035.067.07.067.101zm-.937 1.98c0 .036 0 .067.031.102l-.066.067c0-.031 0-.067-.032-.133 0 0 .032 0 .067-.035zm.097-.366c.036.035.036.066.07.101-.034 0-.034.031-.07.031 0-.03-.03-.066-.03-.097zm1.313-2.688c-.035-.066 0-.066.031-.066 0 .035 0 .035-.031.066zm-.406.707l.035.067h-.035zm0 0" fill="#ff5757"/><path d="M102.793 114.82c.031-.03.066-.066.102-.097.066-.102.066-.305 0-.239a.732.732 0 00-.137.172c0 .031.035.098.035.133-.371.066-.371.438-.54.535-.066 0-.1.035-.1.067.034 0 .07-.032.1-.032-.03.032-.066.102-.1.133v-.066l-.098.101s0 .035.03.067c-.401.605-1.71 2.117-2.347 2.25-.101.133-.402-.336-.605-.336-.035-.067-.035-.133-.102-.168a1.25 1.25 0 01-.133-.906c0-.168 0-.371.036-.504.03-.438 0-.875.164-1.309a.158.158 0 00-.032-.203.201.201 0 010-.2c.168-.202.168-.538.204-.804.066-.305.03-.605.234-.84-.07-.336.164-.539.234-.875.067-.336.301-1.308.438-1.61.535-1.144 1.039-2.35 1.273-3.593.035-.336-.203-.77-.504-.937-.066 0-.132-.036-.199-.036h-.371c-.066 0-.133.036-.2.067-.335.539-.538 1.11-.741 1.715-.133.468-.266.972-.434 1.441-.066.234-.168.402-.238.637-.266.906-.5 1.812-.77 2.687-.066.403-.203.739-.234 1.075-.035.636-.137 1.273-.203 1.91-.032.472-.067.941.066 1.445.035.066.035.168.07.27.032.27.164.503.336.703.2.238.403.504.602.738.168.234.402.406.707.504.098.066.234.066.367.066.57 0 1.344-.402 1.715-.906.234-.2.164-.266.367-.535.203-.203.469-.906.367-1.242 0-.067-.03-.133.035-.133.067.031.102.097.168.133.067-.102-.03-.235 0-.336.036-.133.102-.235.168-.371.067-.164.235-.368.235-.57zm-1.746-11.914c.2.168.469.235.738.367.133-.066.3-.132.469-.199.101-.035.137-.136.137-.203.097-.336.03-.637.168-.941.03-.032 0-.067-.036-.098a.5.5 0 00-.3-.137c-.035 0-.07 0-.102.035-.305.2-.637.438-.906.672a.867.867 0 00-.235.27c-.035.066 0 .2.067.234zm1.105 12.586v.07c0 .032-.03.032-.03.067 0-.067 0-.102.03-.137zm0 0" fill="#ff5757"/><path d="M110.445 94.848c-.035-.032-.066-.032-.101-.032 0 .032.035.067.035.067.031 0 .066-.035.066-.035zm-1.308 4.062c-.035.137-.035.203-.102.203-.035 0-.066 0-.101-.035-.032 0-.067-.031-.102-.031a29.08 29.08 0 011.512-3.461c.101-.2.203-.3.234-.5.067-.238.168-.438.203-.672a.663.663 0 000-.371c-.066-.234-.203-.438-.3-.637-.07-.133-.54-.27-.641-.234-.031 0-.031 0-.067.031-.503.336-.671.875-.87 1.445-.337.973-.606 1.375-.907 2.383-.035.133-.137.27-.172.403l-.367 1.277v.066c.066 0 .133-.066.133-.136 0-.133.07-.266.172-.403.031-.066.097-.097.133-.097.066 0 .132.03.199.097l-.2.54c-.132.03-.304.03-.437.03v-.03c-.031.03-.031.03-.066.03a6.27 6.27 0 01-.774.067c-.133 0-.27 0-.367.035-.238.067-.371.067-.605.067-.54 0-1.11.136-1.61.168-.238 0-.437.035-.64.035h-.168l-.301.066c-.168 0-.235.168-.301.402-.066.204-.035.504.031.774 0 .2.137.367.27.336.031 0 .101-.035.168 0 .469-.102.87-.235 1.277-.235h.133c.234-.035.469-.07.703-.07.137 0 .336-.031.504-.066.066 0 .102 0 .137-.032-.035-.066-.07-.168-.137-.203.066-.066.137-.066.203-.066.234-.035.469 0 .703-.102.102 0 .235 0 .371-.03v.097c0 .035 0 .066-.035.101-.035.067-.066.102-.035.137-.3.805-1.406 3.59-1.34 3.86.168-.07 1.442-3.56 1.477-3.66v-.134c.168 0 .199-.101.066-.238 0-.066.035-.133.067-.199.035 0 .101 0 .167-.035.07-.031.137-.031.235-.031-.031.066-.067.101-.067.132-.03.036-.03.067-.03.102v.031h-.067c-.102 0-.203.102.031.172-.234.836-1.41 3.824-1.477 4.16-.168.535-.27 1.074-.468 1.578-.168.535-.907 3.254-1.211 3.762-.031.066-.031.2-.067.3-.066.434-.27.84-.3 1.274 0 .067-.036.102-.07.137l-.134.469c-.101.437-.3.804-.265 1.242 0 .031 0 .031-.035.066-.203.371-.235.774-.301 1.176-.07.367-.203.738-.172 1.11a.446.446 0 01-.066.199c0-.035-.032-.067-.032-.067-.101-.672.133-1.308.133-1.98v-.035c.203-.301.235-.637.27-1.008 0-.3.601-2.484.703-2.817.035-.101.707-2.351.605-2.585-.101.468-.87 3.02-1.007 3.425-.301 1.04-1.004 3.29-1.004 4.36v.238c-.204.535-.102 1.105-.102 1.676 0 .336.2 1.078.535 1.242.301.168.54.437.805.672a.415.415 0 00.305.137c.097 0 .168-.036.27-.067l.937-.406c.402-.2.773-.367 1.109-.672-.035-.031-.07-.031-.07-.098l.101-.066v.031c0-.066.035-.101.102-.133.133-.234.336-.406.539-.57.066-.07.097-.07.164-.07.07 0 .101 0 .172.035.031 0 .066.035.133.035.03 0 .066-.035.101-.07.031-.067 0-.098-.07-.133-.031-.031-.067-.066-.067-.102 0-.101.168-.132.239-.132h.062c.035.03.07.03.102.03.035 0 .07-.066.035-.097-.066-.168-.035-.238.102-.336.269-.203.535-.437.703-.738.066-.07.066-.137.066-.234-.031-.102.035-.137.137-.172.066-.032.168-.032.234-.032.234-.03.336-.168.336-.402.102-.035.133-.101.133-.203v-.434h-.133c0-.07.066-.101.133-.136v.136c.168-.035.203-.035.234-.234h-.133c-.035.066-.035.098-.101.098 0-.067.035-.098.101-.133.036-.067.067-.067.133-.102l.067-.234c.136-.168.27-.336.472-.438 0-.066.067-.097.133-.132-.031.101-.066.132-.133.168 0 .168-.101.265-.136.367.238 0 .37-.168.472-.336.035-.031 0-.133-.101-.164h-.102a.73.73 0 01.371-.406c.031.035 0 .136.102.07l-.102-.07c0-.133.067-.235.168-.336l.637-.672c.367-.5.738-.973 1.176-1.407.097-.168.097-.234.035-.234-.035 0-.102.031-.203.133l-1.242 1.375c-.54.672-1.04 1.308-1.645 1.879l-.54.574a3.692 3.692 0 01-.57.668l-.972.973c-.102.101-.203.238-.3.304-.305.168-.505.403-.74.637-.57.54-1.21 1.008-1.882 1.445-.164.133-.402.235-.601.336-.036 0-.07.032-.137.032-.133 0-.2-.098-.27-.235a1.802 1.802 0 01-.133-.707v-.77c0-.167 0-.402.036-.57.097-.234.097-.504.097-.738 0-.234.035-.438.102-.64.07-.165.137-.337.137-.5l.132-.743c.036-.3.168-.535.27-.77.066-.202.066-.37.133-.57.035-.168.07-.336.133-.472.035-.098.27-.938.27-1.04 0-.132.034-.234.1-.367.067-.136.805-2.418.84-2.585.102-.438.235-.876.368-1.278.238-.805 1.746-4.867 2.015-5.672l.305-.87a.68.68 0 00.234.03c.067 0 .133 0 .164-.03.07 0 .172-.071.239-.036.03.066.066.066.097.066.07 0 .102-.03.137-.03.035-.071.066-.138.102-.138.03 0 .03.036.066.067.066.137.066.137.133.07l-.133-.07c.031-.098.102-.067.133-.067v.067c.035-.098.035-.098.035.035l.168-.133c.031-.035.102-.066.2-.066h.1c.235-.035.438-.07.637-.172.102 0 .168-.098.235-.066.305.035.605-.2.906-.2.27-.07.473-.203.64-.234.204 0 .872-.234 1.009-.371.101-.067.168-.067.265-.067.102 0 .235.032.336.067-.266.2-.57.402-.871.57a.291.291 0 00.168.035c.031 0 .102 0 .168-.035.133-.133.27-.101.336-.234h.066c.067 0 .504-.235.504-.336.067-.27-.035-.469 0-.774.035-.097-.035-.199-.101-.234a.283.283 0 00-.133-.066c-.035 0-.067.035-.102.132-.101.168-.234.235-.336.235-.168 0-.27.137-.402.203-.066.102-.168.168-.27.168-.035-.035-.066-.035-.101-.035-.098 0-.168.07-.27.07a.206.206 0 01-.234.102h-.098c-.101 0-.168 0-.203.066-.066.031-.168.098-.234.098-.035 0-.067-.032-.102-.032-.035-.066-.101-.035-.168.032-.133.101-.3.172-.402.136-.035-.035-.066-.035-.102-.035-.03 0-.097.035-.132.07 0 .098-.235.133-.336.133a.454.454 0 01-.2-.07c-.035.035-.136.035-.203.137-.101.101-.234.133-.402.133-.035.066-.102.101-.168.035-.07-.067-.137.031-.168.031 0 .035-.035.035-.066.035h-.204c-.03.067-.101.067-.168.067a1.18 1.18 0 01-.3-.067c.031-.066.031-.168.101-.168.032-.031.098-.066.133-.133-.035-.035-.066-.035-.101-.035a.392.392 0 00-.204.067c-.03 0-.03 0-.03.07 0 .031.03.098.03.133zm-3.66 5.305l-.536 1.746c-.035.102 0 .234 0 .367.067 0 .098-.066.098-.133.168-.468.27-.972.438-1.445.066-.2.101-.402.101-.602zm3.289 10.539c.136-.2.3-.367.504-.504v.27l-.235.168c-.066.066-.168.066-.27.066zm3.996-16.313c.031-.035.066-.066.101-.066.067 0 .133.066.235.102-.07.062-.168.062-.235.097-.136 0-.336.067-.504.067h-.066c.133-.164.3-.164.469-.2zm-3.29 1.375c-.472 0 .368.137.368.137h.066v-.101l-.031-.07c-.137 0-.234 0-.402.034zm-2.82.473a.854.854 0 00-.402-.102c-.102 0-.168 0-.238.032 0 .035-.032.101-.032.101l.032.035c.238 0 .406-.035.64-.066zm3.223-1.715a.554.554 0 00.2.035c.07 0 .1-.035.136-.132-.066-.036-.137-.036-.168-.036-.137 0-.27.036-.402.067 0 0-.036.031-.036.066l.036.035c.03.032.066.067.097.067.07 0 .102-.067.137-.102zm-4.934 7.754c-.171.168-.203.406-.234.64-.035 0 .031.032.031.067.203-.203.203-.437.203-.707zm6.375-7.453c-.066.102-.132.137-.199.137-.035 0-.101-.035-.137-.102.036-.066.102-.066.137-.066a.33.33 0 01.168.031c.031-.098.102-.133.168-.133.067 0 .098 0 .2.067-.102.035-.2.101-.266.101-.035 0-.035 0-.07-.035zm.54-.836c.101.066.132.066.199.066.101 0 .203-.035.336-.136v-.031c-.27 0-.27 0-.536.101zm.066.77c-.067-.032-.102 0-.2 0h-.07c0-.067.035-.098.07-.133a.522.522 0 01.165-.067c.07-.035.136 0 .136.032 0 .07-.066.136-.101.168zm-4.129.437c-.066 0-.102.035-.168.035-.066 0-.066-.035-.066-.101-.036-.035-.036-.102 0-.102.03 0 .101 0 .132-.031h.168zm.875-2.719c0 .102-.035.133-.137.2h-.035c0-.067-.031-.133-.031-.165 0-.101.031-.136.101-.136a.076.076 0 01.102.101zm1.91 1.88c-.066-.032-.098-.032-.168-.032-.031 0-.101.031-.168.102.067.062.137.132.168.097.07-.035.137-.097.137-.168.031 0 .066.035.066-.066-.035.035-.035.066-.035.066zm2.016.874c.101 0 .168-.035.234-.035.035 0 .067-.101.067-.101-.067-.032-.032-.032-.067-.032-.035-.035-.101-.035-.2 0-.034 0 0 .067-.034.168zm-1.446-1.043c0 .067 0 .067.036.102.066-.035.168 0 .203-.102-.035-.031-.035-.097-.035-.097-.067 0-.137 0-.168.066zm1.848.739v.101l.031.035c.035-.035.07 0 .137 0 0 0 .035 0 .066-.035v-.101zm-1.445.503c.035.036.07.036.07.036.067 0 .2-.067.336-.102 0 0 0-.066-.035-.031-.067-.035-.2.031-.3.066zm-1.34-.3c.031-.102.066-.168.098-.168 0 0 .035.035.07.101.031.032.031.032.031.067-.101.066-.133.03-.2 0zm-.672 15.441h-.102c-.066 0-.132 0-.167-.137.101 0 .234 0 .27.137zm-3.191-15.308c-.032 0-.067.035-.133.035-.067.035-.102 0-.102-.035.035-.032.07-.102.102-.102.066 0 .101.035.133.102zm4.836.269c-.067.035-.168-.035-.204-.066-.03 0-.097 0-.03.066 0 .035.03.102.066.066.035 0 .101.067.168-.066zm1.914-1.105c.03-.07.066-.137.132-.137.036 0 .036 0 .067.035-.031.102-.067.133-.098.133-.035 0-.07-.031-.101-.031zm-6.078.77c.101-.067.168-.102.234-.102l-.067.101c-.03.035-.097.035-.167.067zm3.222.468c-.066 0-.133 0-.168.066v.035c.035.067.07.102.07 0 .067 0 .067 0 .098-.066zm.371-.77c.032 0 .032.133.032.133v.035h-.098v-.136c0-.032 0-.032.031-.032zm-5.203 1.243c0-.07.031-.07.067-.07.035 0 .066.034.136.07-.035.03-.07.066-.101.066-.035 0-.07-.035-.102-.067zm5.438-1.243c.035-.07.101-.035.132-.035-.03.102-.03.137-.066.137 0 0-.031-.035-.066-.102zm-1.141.336c0 .031-.066.031-.102.067l-.03-.035v-.067c.066-.066.097-.035.132.035zm-6.883 17.051l-.066.066c0-.03-.035-.066-.035-.101l.101-.098zm6.578-2.215c0-.066.07-.133.137-.133 0 .067-.066.133-.137.133zm-4.16-13.965c.035-.035.067 0 .168.035h-.035c-.031.032-.066.032-.133.032zm3.39 14.739c0-.07.067-.102.134-.137 0 .066-.067.137-.133.137zm-2.183 2.953c.07 0 .102 0 .102-.102h-.102zm4.867-18.262c.036-.066.036-.102.036-.102 0-.03 0 0-.036 0-.03 0 0 .102 0 .102zm-1.14 13.898c-.067 0-.102.067-.133.133.066-.035.133-.066.133-.133zm-.906.77c.035-.066.066-.133.132-.133 0 .067-.066.102-.132.133zm.671-.535c.067 0 .102-.035.102-.102zm3.356-15.34c.066-.102.101-.102.137 0v-.035c-.036.066-.07.035-.137.035zm-.77-.438c-.035-.035-.101-.066-.136 0 .035.032.101.067.136 0zm-1.21 1.645c-.067-.035-.133-.102-.133 0 .03 0 .066.066.132 0zm-2.383-.133c.035-.035.066-.101.101-.066 0-.035 0 0 .031.031l-.03.035c-.036-.035-.067.031-.102 0zm1.375 13.895c-.067 0-.098.07-.133.136a.253.253 0 00.133-.136zm-4.696-13.156c0-.102.067-.07.098-.036-.031.067-.066.035-.098.035zm-.574 0c-.031 0 0 .066 0 .066h-.066c0-.035 0-.102.035-.067zm8.496-1.915a.45.45 0 01-.07.102c0-.102 0-.102.07-.102zm-1.008-.335c.032 0 .067.03.102.03v-.03s0-.036-.035-.036c0 0-.035 0-.067.035zm-1.71 1.175c-.036-.136 0-.101.03-.136 0 .101-.03.136-.03.136zm2.21-1.379c0 .036.07.102.102.036-.031-.036-.031-.036-.102-.036zm-5.101 17.895c-.067-.067 0-.067.035-.067 0 .032 0 .032-.035.067zm.64-.637c-.07-.07 0-.07.032-.07 0 .035 0 .035-.032.07zm-1.914 2.684c-.035 0-.066-.035-.066-.035v.07c0-.035.031-.035.066-.035zm7.79-19.336c-.036-.035-.036-.067 0-.035zm-9.337 1.812c0 .067-.03.067-.066.067 0-.031 0-.067.066-.067zm-2.214 15.946c.066.066-.032.066-.067.066.035 0 .035-.031.067-.066zm6.546-17.524s-.035 0-.066.035h.102c-.035 0-.035-.07-.035-.035zm.57.672s-.034 0-.066-.035c.032 0 .067 0 .067.035zm2.587.035c0-.035-.035-.035-.067 0h-.035c.035 0 .035.031.035.031zm-1.11 12.79c-.066 0-.03 0-.03-.036h.03zm-1.609-12.489s-.035 0-.035-.035v.07c.035.031.035 0 .035-.035zm.672.168c0-.035 0-.035-.035-.035l.035.066v-.031zm-2.52 15.71c.067.067 0 .067-.03.067.03-.035.03-.035.03-.066zm-2.148-15.17c-.031 0-.031 0-.031.065 0 0 .03 0 .03-.066zm7.016-2.454s-.102-.066-.032.035zm-6.31 19.906h-.034v-.031zm4.935-5.773c0 .031 0 .066-.036.066.036 0 .067 0 .036-.066zm-.102.101c-.031 0-.066 0 0 .067zm-.602-13.695v.066zm1.407.3c0-.034.035 0 .035 0zm-2.282 15.075h-.035v-.035zm-3.355 3.89c-.035 0-.035-.03-.035-.03zm6.879-18.695s.035 0 .035-.035c0 0-.035-.066-.035.035zm-.57-1.11c0-.03.035.036 0-.065zm-4.497-.839l-.035-.031zm1.375 16.719c.036.035 0 .035 0 .035zm.438-15.238s.031 0 .031-.036zm-2.52 17.386l-.03.035zm2.215-2.25l.035-.035zm-3.457 4.23v.032zm2.453-18.394c0 .031.032.031.032 0zm0 0" fill="#ff5757"/><path d="M115.746 113.95c.035-.067-.031-.134-.101-.169v-.066c0-.067 0-.137.07-.137 0 0 .031.035.066.035.098.035.235.067.235.27v.637c0 .203.101.402.132.605.036.973.637 1.645 1.344 2.25.035.031.137.031.168.066.067.032.133.067.203.067.434 0 1.778-1.11 2.078-1.41.137-.102.07-.27.168-.371a2.06 2.06 0 00.336-.266c.035-.035.035-.102 0-.102h-.097c-.606.403-1.176.805-1.813 1.11a1.371 1.371 0 01-.605.133c-.102 0-.203 0-.301-.036-.305-.402-.438-.906-.438-1.41 0-1.742.871-5.469 1.579-6.879.234-.402.265-.84.199-1.277-.168-.102-.336-.203-.504-.203a.54.54 0 00-.3.101c-.036.036-.103.036-.138.036-.066 0-.097 0-.164-.036-.472-.234-.941-.234-1.445-.234-.805.035-1.512.234-2.148.773-.27.235-.54.536-.872.672-.035.032-.066.067-.066.102-.102.2-.27.402-.437.469-.27.132-.204.437-.438.601-.703.64-1.207 1.68-1.61 2.555-.07.066-.1.133-.136.2-.606 1.847-.906 2.987-.906 5.003 0 .637.234 1.207.738 1.645l.234.234a.555.555 0 00.407.168c.164-.035.367-.035.535-.133.504-.238 1.68-1.008 1.945-1.445.066-.102.27-.133.336-.27.102-.199.27-.367.402-.535-.097-.27.239-.406.27-.605.035-.2.168-.403.27-.57a2.26 2.26 0 01.3-.571c.067-.137.168-.234.137-.402.234-.102.3-.371.367-.606zm-4.496 4.26c-.035.036-.102.036-.168.071-.07-.07-.137-.101-.137-.136-.066-.067-.066-.168-.066-.235 0-.234 0-.469-.102-.707a.385.385 0 010-.266c.137-.468.137-.94.203-1.445.067-.168.102-.367.133-.535.203-.605.305-1.242.57-1.812.169-.372.27-.739.438-1.075.067-.132.168-.234.234-.37.137-.302.372-.536.438-.84.031-.032.031-.098.066-.133.336-.235.504-.606.84-.872.27-.238.504-.574.805-.808.504-.367.976-.738 1.578-.973a2.66 2.66 0 00.906-.605c.102-.067.133-.098.203-.098.067 0 .102.031.168.098.2.172.235.27.133.504-.168.402-.37.808-.469 1.242-.066.472-.437 1.613-.671 2.05-.301.672-.637 1.34-.973 2.047-.168.438-.473.836-.738 1.243-.204.402-.473.77-.672 1.172-.672 1.078-1.68 1.812-2.719 2.484zm4.129-4.026c.031-.036.031-.067.031-.102l.07.066c0 .036-.035.07-.07.102 0-.031-.031-.031-.031-.066zm-3.828-3.188h.031v.031zm4.43 2.082h-.032v-.035zm-4.532-1.848v.036h-.031zm3.324 4.063v-.066zm0 0" fill="#ff5757"/><path d="M122.293 111.094c.434.304.937.539 1.441.808-.132.133-.199.2-.234.301-.035.168-.102.336-.371.371-.164 0-.234.098-.336.168 0 .067-.066.168-.098.168-.066 0-.136-.035-.168-.035-.203 0-.27.133-.336.27.032.066 0 .097-.066.097-.305.102-.473.305-.64.473a1.175 1.175 0 00-.301.2c-.57.233-1.008.538-1.207 1.042-.239.3-.305.637-.575 1.008-.097.2-.066.402-.03.601.167.707.468 1.309 1.007 1.813.3.473.906.64 1.41.707.336 0 .703-.066.938-.168.503-.168 1.007-.371 1.308-.773.07-.067.172-.133.305-.235.703-.504.937-.605 1.273-1.207.102-.234.27-.437.407-.605.066-.102.066-.2.132-.336.336-.504.403-1.075.535-1.68v-.168c-.03-.434-.402-.906-.57-1.309-.066-.27-.3-.468-.504-.636-.133-.133-.101-.203 0-.27.07-.066.07-.097.168-.133.637-.3 3.727-1.007 4.399-1.175.168-.032.336-.102.468-.168.102-.035.102-.067.102-.102-.066-.066-.168-.133-.27-.133h-.132c-.336.2-.739.2-1.075.336-.3.133-3.02.703-3.39.84-.168.031-.301.102-.469.2a.916.916 0 01-.402.1c-.168 0-.336-.066-.504-.167-.371-.133-.875-.438-1.176-.672-.367-.234-.437-.535-.3-.805.167-.234.366-.468.534-.773.102-.3.336-.5.739-.637.203-.066.437-.2.57-.336.402-.27.738-.433 1.21-.504.571-.03.938-.234 1.34-.402.169-.035.708-.133.81-.133.097 0 .265 0 .331-.035.239-.066.336-.133.336-.266 0-.171-.199-.27-.336-.336-.3-.101-.535-.203-.836-.203-.27 0-.503-.035-.773-.066-.605-.102-.906-.168-1.14-.168-.204 0-.372.066-.704.133-.27.066-.605.234-.875.336-1.039.468-1.812 1.175-2.316 2.082-.234.3-.336.77-.438 1.14-.03.102 0 .203.102.301.168.203.371.406.371.707 0 .168.2.3.336.434zm2.55 1.578c.098.101.098.203.134.305.101.671 0 1.273-.336 1.843-.672 1.176-1.746 2.383-3.02 2.89-.137.032-.27.099-.437.099h-.204c-.132 0-.265 0-.468-.098-.168-.137-.168-.371-.336-.574 0 0 0-.032-.031-.067.199-.402.03-.84.199-1.308.27-.805 1.008-1.778 1.812-2.114a.906.906 0 01.336-.203c.371-.132.672-.367 1.008-.601.2-.172.57-.27.805-.438.035 0 .066-.035.101-.035.168 0 .371.137.438.3zm-1.48 4.703c-.031 0-.097 0-.031-.07 0 0-.133-.032-.102-.067.133-.402.47-.672.805-.906.07-.035-.066 0 .07.035 0 0 .102.102.032.102-.235.265-.469.57-.774.906zm1.176-1.512c-.066.102-.098.2-.234.27h-.098l-.035-.035c.035-.102.066-.235.133-.403.035-.066.234-.132.234-.066.066.066.066.098 0 .234zm-2.281 2.215c-.035 0-.067 0-.102-.031 0-.172.137-.238.403-.238.035.238.035.238-.301.27zm2.586-2.719c-.035.032-.067.067-.102.067-.035 0-.035-.035-.101-.035.066-.032.101-.098.101-.133h.067c.035.035.035.101.035.101zm-2.989 2.786c.032-.032.032-.067.032-.067h.238c0 .035 0 .067-.066.067zm1.207-.805l.036.035h-.035zm-.738 1.176h-.031v-.036zm0 0" fill="#ff5757"/><path d="M40.613 102.621h7.219v4.207H33.766l-.028-3.45 6.489-6.702a7.53 7.53 0 001.125-1.41c.289-.477.433-.887.433-1.23 0-.419-.144-.735-.433-.954-.286-.215-.684-.324-1.207-.324-.708 0-1.5.207-2.375.613-.872.406-1.747.973-2.63 1.7l-2.027-3.895c2.703-1.852 5.313-2.781 7.84-2.781 1.246 0 2.356.207 3.332.613.977.41 1.75.976 2.313 1.699.562.727.843 1.566.843 2.52 0 .949-.308 1.925-.921 2.918-.61 1-1.493 2.066-2.637 3.207zm0 0" fill="#fff"/></svg>