<svg xmlns="http://www.w3.org/2000/svg" xmlns:xlink="http://www.w3.org/1999/xlink" width="500" zoomAndPan="magnify" viewBox="0 0 375 374.999991" height="500" preserveAspectRatio="xMidYMid meet" version="1.0"><defs><clipPath id="f54d950ee3"><path d="M 94.410156 53.800781 L 280.410156 53.800781 L 280.410156 321.550781 L 94.410156 321.550781 Z M 94.410156 53.800781 " clip-rule="nonzero"/></clipPath><clipPath id="5e2a7c717a"><path d="M 62 53.800781 L 321.550781 53.800781 L 321.550781 314 L 62 314 Z M 62 53.800781 " clip-rule="nonzero"/></clipPath></defs><g clip-path="url(#f54d950ee3)"><path fill="#ffffff" d="M 280.394531 146.996094 C 280.394531 95.550781 238.738281 53.800781 187.410156 53.800781 C 136.082031 53.800781 94.425781 95.550781 94.425781 146.996094 C 94.425781 192.847656 127.527344 230.964844 171.046875 238.792969 L 171.046875 256.964844 L 139.335938 256.964844 L 139.335938 289.769531 L 171.046875 289.769531 L 171.046875 321.550781 L 203.777344 321.550781 L 203.777344 289.769531 L 235.484375 289.769531 L 235.484375 256.964844 L 203.777344 256.964844 L 203.777344 238.792969 C 247.292969 230.964844 280.394531 192.847656 280.394531 146.996094 Z M 127.992188 146.996094 C 127.992188 114.097656 154.585938 87.441406 187.410156 87.441406 C 220.234375 87.441406 246.828125 114.097656 246.828125 146.996094 C 246.828125 179.890625 220.234375 206.546875 187.410156 206.546875 C 154.585938 206.546875 127.992188 179.890625 127.992188 146.996094 Z M 127.992188 146.996094 " fill-opacity="1" fill-rule="nonzero"/></g><g clip-path="url(#5e2a7c717a)"><path fill="#ffffff" d="M 314.765625 85.371094 L 289.976562 60.582031 L 273.601562 76.960938 L 273.601562 53.777344 L 238.511719 53.777344 L 238.511719 101.734375 L 190.550781 101.734375 L 190.550781 136.824219 L 213.699219 136.824219 L 194.398438 156.136719 C 192.941406 155.1875 191.457031 154.28125 189.945312 153.417969 C 188.429688 152.558594 186.894531 151.746094 185.332031 150.976562 C 183.769531 150.210938 182.183594 149.492188 180.578125 148.820312 C 178.96875 148.152344 177.34375 147.53125 175.699219 146.960938 C 174.054688 146.390625 172.394531 145.871094 170.71875 145.402344 C 169.042969 144.933594 167.351562 144.515625 165.652344 144.148438 C 163.949219 143.785156 162.238281 143.472656 160.515625 143.210938 C 158.796875 142.949219 157.066406 142.742188 155.332031 142.585938 C 153.601562 142.429688 151.863281 142.328125 150.121094 142.277344 C 148.382812 142.230469 146.644531 142.234375 144.902344 142.292969 C 143.164062 142.347656 141.425781 142.457031 139.695312 142.621094 C 137.960938 142.785156 136.234375 143.003906 134.515625 143.269531 C 132.792969 143.539062 131.085938 143.863281 129.382812 144.234375 C 127.683594 144.609375 125.996094 145.035156 124.324219 145.511719 C 122.648438 145.988281 120.992188 146.515625 119.347656 147.09375 C 117.707031 147.671875 116.085938 148.300781 114.480469 148.976562 C 112.878906 149.65625 111.296875 150.378906 109.738281 151.15625 C 108.175781 151.929688 106.644531 152.75 105.132812 153.617188 C 103.625 154.484375 102.144531 155.398438 100.691406 156.359375 C 99.238281 157.316406 97.816406 158.320312 96.425781 159.363281 C 95.03125 160.410156 93.675781 161.496094 92.347656 162.625 C 91.023438 163.753906 89.734375 164.921875 88.480469 166.128906 C 87.226562 167.335938 86.011719 168.582031 84.832031 169.863281 C 83.65625 171.144531 82.515625 172.460938 81.421875 173.8125 C 80.324219 175.164062 79.269531 176.550781 78.253906 177.964844 C 77.242188 179.378906 76.273438 180.828125 75.351562 182.300781 C 74.425781 183.777344 73.546875 185.277344 72.714844 186.808594 C 71.882812 188.335938 71.097656 189.890625 70.363281 191.464844 C 69.625 193.042969 68.9375 194.640625 68.296875 196.261719 C 67.65625 197.878906 67.066406 199.515625 66.527344 201.171875 C 65.988281 202.828125 65.5 204.496094 65.0625 206.179688 C 64.625 207.867188 64.238281 209.5625 63.90625 211.269531 C 63.570312 212.980469 63.292969 214.695312 63.0625 216.421875 C 62.832031 218.148438 62.660156 219.878906 62.535156 221.617188 C 62.414062 223.351562 62.34375 225.089844 62.328125 226.832031 C 62.308594 228.570312 62.347656 230.3125 62.4375 232.050781 C 62.527344 233.789062 62.671875 235.523438 62.867188 237.253906 C 63.0625 238.980469 63.3125 240.703125 63.613281 242.417969 C 63.914062 244.132812 64.265625 245.835938 64.671875 247.53125 C 65.078125 249.222656 65.535156 250.902344 66.042969 252.566406 C 66.550781 254.230469 67.109375 255.878906 67.71875 257.507812 C 68.328125 259.140625 68.988281 260.75 69.695312 262.339844 C 70.402344 263.933594 71.15625 265.5 71.960938 267.042969 C 72.765625 268.589844 73.613281 270.105469 74.511719 271.597656 C 75.40625 273.089844 76.347656 274.554688 77.332031 275.988281 C 78.320312 277.425781 79.347656 278.828125 80.417969 280.199219 C 81.492188 281.570312 82.601562 282.910156 83.757812 284.210938 C 84.910156 285.515625 86.101562 286.785156 87.332031 288.015625 C 88.5625 289.246094 89.832031 290.4375 91.136719 291.589844 C 92.4375 292.746094 93.777344 293.855469 95.148438 294.929688 C 96.519531 296 97.925781 297.027344 99.359375 298.015625 C 100.792969 299 102.257812 299.941406 103.75 300.835938 C 105.242188 301.734375 106.761719 302.582031 108.304688 303.386719 C 109.847656 304.191406 111.414062 304.945312 113.007812 305.652344 C 114.597656 306.359375 116.207031 307.019531 117.839844 307.628906 C 119.46875 308.238281 121.117188 308.796875 122.78125 309.304688 C 124.445312 309.8125 126.125 310.269531 127.816406 310.675781 C 129.511719 311.082031 131.214844 311.433594 132.929688 311.734375 C 134.644531 312.035156 136.367188 312.285156 138.09375 312.480469 C 139.824219 312.675781 141.558594 312.820312 143.296875 312.910156 C 145.035156 313 146.777344 313.039062 148.515625 313.019531 C 150.257812 313.003906 151.996094 312.933594 153.730469 312.8125 C 155.46875 312.691406 157.199219 312.515625 158.925781 312.285156 C 160.652344 312.058594 162.367188 311.777344 164.078125 311.441406 C 165.785156 311.109375 167.480469 310.722656 169.167969 310.285156 C 170.851562 309.847656 172.523438 309.359375 174.175781 308.820312 C 175.832031 308.28125 177.46875 307.691406 179.085938 307.050781 C 180.707031 306.414062 182.304688 305.722656 183.882812 304.988281 C 185.457031 304.25 187.011719 303.464844 188.539062 302.632812 C 190.070312 301.800781 191.570312 300.921875 193.046875 299.996094 C 194.519531 299.074219 195.96875 298.105469 197.382812 297.09375 C 198.800781 296.078125 200.183594 295.023438 201.535156 293.925781 C 202.886719 292.832031 204.203125 291.691406 205.484375 290.515625 C 206.765625 289.335938 208.011719 288.121094 209.21875 286.867188 C 210.425781 285.613281 211.59375 284.324219 212.722656 283 C 213.851562 281.675781 214.9375 280.316406 215.984375 278.921875 C 217.03125 277.53125 218.03125 276.109375 218.988281 274.65625 C 219.949219 273.203125 220.863281 271.722656 221.730469 270.214844 C 222.597656 268.703125 223.417969 267.171875 224.191406 265.613281 C 224.96875 264.050781 225.691406 262.472656 226.371094 260.867188 C 227.046875 259.265625 227.675781 257.640625 228.253906 256 C 228.832031 254.355469 229.359375 252.699219 229.835938 251.023438 C 230.3125 249.351562 230.738281 247.664062 231.113281 245.964844 C 231.488281 244.261719 231.808594 242.554688 232.078125 240.832031 C 232.347656 239.113281 232.5625 237.386719 232.726562 235.652344 C 232.890625 233.921875 233 232.183594 233.058594 230.445312 C 233.113281 228.707031 233.117188 226.964844 233.070312 225.226562 C 233.019531 223.484375 232.917969 221.75 232.761719 220.015625 C 232.605469 218.28125 232.398438 216.554688 232.136719 214.832031 C 231.875 213.109375 231.5625 211.398438 231.199219 209.699219 C 230.832031 207.996094 230.414062 206.304688 229.945312 204.628906 C 229.476562 202.953125 228.957031 201.292969 228.386719 199.648438 C 227.816406 198.003906 227.195312 196.378906 226.527344 194.773438 C 225.855469 193.164062 225.136719 191.582031 224.371094 190.015625 C 223.605469 188.453125 222.789062 186.917969 221.929688 185.402344 C 221.066406 183.890625 220.160156 182.40625 219.210938 180.949219 L 238.523438 161.648438 L 238.523438 184.785156 L 273.613281 184.785156 L 273.613281 136.824219 L 321.574219 136.824219 L 321.574219 101.734375 L 298.386719 101.734375 Z M 184.105469 265.683594 C 182.886719 266.902344 181.613281 268.058594 180.277344 269.152344 C 178.945312 270.246094 177.5625 271.269531 176.128906 272.230469 C 174.695312 273.1875 173.21875 274.070312 171.699219 274.882812 C 170.179688 275.699219 168.621094 276.433594 167.03125 277.09375 C 165.4375 277.753906 163.816406 278.332031 162.164062 278.832031 C 160.515625 279.332031 158.847656 279.753906 157.15625 280.089844 C 155.464844 280.425781 153.761719 280.675781 152.046875 280.847656 C 150.328125 281.015625 148.609375 281.101562 146.886719 281.101562 C 145.160156 281.101562 143.441406 281.015625 141.726562 280.847656 C 140.011719 280.675781 138.308594 280.425781 136.617188 280.089844 C 134.925781 279.753906 133.253906 279.332031 131.605469 278.832031 C 129.957031 278.332031 128.335938 277.753906 126.742188 277.09375 C 125.148438 276.433594 123.59375 275.695312 122.074219 274.882812 C 120.550781 274.070312 119.074219 273.1875 117.640625 272.230469 C 116.207031 271.269531 114.824219 270.246094 113.492188 269.152344 C 112.160156 268.058594 110.882812 266.902344 109.664062 265.683594 C 108.445312 264.464844 107.289062 263.1875 106.195312 261.855469 C 105.101562 260.523438 104.078125 259.140625 103.121094 257.707031 C 102.160156 256.273438 101.277344 254.796875 100.464844 253.277344 C 99.652344 251.753906 98.914062 250.199219 98.253906 248.605469 C 97.59375 247.011719 97.015625 245.390625 96.515625 243.742188 C 96.015625 242.09375 95.597656 240.421875 95.261719 238.730469 C 94.921875 237.039062 94.671875 235.335938 94.503906 233.621094 C 94.332031 231.90625 94.25 230.1875 94.25 228.460938 C 94.25 226.738281 94.332031 225.019531 94.503906 223.304688 C 94.671875 221.585938 94.921875 219.882812 95.261719 218.191406 C 95.597656 216.503906 96.015625 214.832031 96.515625 213.183594 C 97.015625 211.53125 97.59375 209.910156 98.253906 208.320312 C 98.914062 206.726562 99.652344 205.167969 100.464844 203.648438 C 101.277344 202.128906 102.160156 200.652344 103.121094 199.21875 C 104.078125 197.785156 105.101562 196.402344 106.195312 195.070312 C 107.289062 193.738281 108.445312 192.460938 109.664062 191.242188 C 110.882812 190.023438 112.160156 188.867188 113.492188 187.773438 C 114.824219 186.679688 116.207031 185.652344 117.640625 184.695312 C 119.074219 183.738281 120.550781 182.851562 122.074219 182.039062 C 123.59375 181.226562 125.148438 180.492188 126.742188 179.832031 C 128.335938 179.171875 129.957031 178.589844 131.605469 178.089844 C 133.253906 177.589844 134.925781 177.171875 136.617188 176.835938 C 138.308594 176.5 140.011719 176.246094 141.726562 176.078125 C 143.441406 175.910156 145.160156 175.824219 146.886719 175.824219 C 148.609375 175.824219 150.328125 175.910156 152.046875 176.078125 C 153.761719 176.246094 155.464844 176.5 157.15625 176.835938 C 158.847656 177.171875 160.515625 177.589844 162.164062 178.089844 C 163.816406 178.589844 165.4375 179.171875 167.03125 179.832031 C 168.621094 180.492188 170.179688 181.226562 171.699219 182.039062 C 173.21875 182.851562 174.695312 183.738281 176.128906 184.695312 C 177.5625 185.652344 178.945312 186.679688 180.277344 187.773438 C 181.613281 188.867188 182.886719 190.023438 184.105469 191.242188 C 185.324219 192.460938 186.480469 193.738281 187.574219 195.070312 C 188.667969 196.402344 189.695312 197.785156 190.652344 199.21875 C 191.609375 200.652344 192.496094 202.128906 193.308594 203.648438 C 194.121094 205.167969 194.855469 206.726562 195.515625 208.320312 C 196.175781 209.910156 196.757812 211.53125 197.257812 213.183594 C 197.757812 214.832031 198.175781 216.503906 198.511719 218.191406 C 198.847656 219.882812 199.101562 221.585938 199.269531 223.304688 C 199.4375 225.019531 199.523438 226.738281 199.523438 228.460938 C 199.523438 230.1875 199.4375 231.90625 199.269531 233.621094 C 199.101562 235.335938 198.847656 237.039062 198.511719 238.730469 C 198.175781 240.421875 197.757812 242.09375 197.257812 243.742188 C 196.757812 245.390625 196.175781 247.011719 195.515625 248.605469 C 194.855469 250.199219 194.121094 251.753906 193.308594 253.277344 C 192.496094 254.796875 191.609375 256.273438 190.652344 257.707031 C 189.695312 259.140625 188.667969 260.523438 187.574219 261.855469 C 186.480469 263.1875 185.324219 264.464844 184.105469 265.683594 Z M 184.105469 265.683594 " fill-opacity="1" fill-rule="nonzero"/></g></svg>