<svg xmlns="http://www.w3.org/2000/svg" xmlns:xlink="http://www.w3.org/1999/xlink" width="500" zoomAndPan="magnify" viewBox="0 0 375 374.999991" height="500" preserveAspectRatio="xMidYMid meet" version="1.0"><defs><clipPath id="93eb09c53f"><path d="M 62 53.625 L 321.375 53.625 L 321.375 313 L 62 313 Z M 62 53.625 " clip-rule="nonzero"/></clipPath></defs><g clip-path="url(#93eb09c53f)"><path fill="#ffffff" d="M 314.589844 85.195312 L 289.804688 60.410156 L 273.429688 76.785156 L 273.429688 53.601562 L 238.335938 53.601562 L 238.335938 101.558594 L 190.378906 101.558594 L 190.378906 136.652344 L 213.527344 136.652344 L 194.226562 155.964844 C 192.769531 155.011719 191.28125 154.105469 189.769531 153.246094 C 188.257812 152.382812 186.71875 151.570312 185.15625 150.804688 C 183.59375 150.035156 182.007812 149.316406 180.402344 148.648438 C 178.796875 147.976562 177.171875 147.359375 175.527344 146.789062 C 173.882812 146.21875 172.21875 145.695312 170.542969 145.226562 C 168.867188 144.757812 167.179688 144.34375 165.476562 143.976562 C 163.773438 143.609375 162.0625 143.296875 160.34375 143.035156 C 158.621094 142.773438 156.894531 142.566406 155.160156 142.410156 C 153.425781 142.257812 151.6875 142.152344 149.949219 142.105469 C 148.207031 142.054688 146.46875 142.058594 144.730469 142.117188 C 142.988281 142.175781 141.253906 142.285156 139.519531 142.449219 C 137.785156 142.613281 136.058594 142.828125 134.339844 143.097656 C 132.621094 143.367188 130.910156 143.6875 129.210938 144.0625 C 127.511719 144.433594 125.824219 144.859375 124.148438 145.335938 C 122.476562 145.8125 120.816406 146.339844 119.175781 146.917969 C 117.53125 147.496094 115.910156 148.125 114.304688 148.804688 C 112.703125 149.480469 111.121094 150.207031 109.5625 150.980469 C 108.003906 151.753906 106.46875 152.574219 104.960938 153.445312 C 103.453125 154.3125 101.96875 155.226562 100.519531 156.183594 C 99.066406 157.140625 97.640625 158.144531 96.25 159.191406 C 94.859375 160.234375 93.5 161.324219 92.175781 162.453125 C 90.847656 163.578125 89.558594 164.75 88.304688 165.957031 C 87.050781 167.164062 85.835938 168.40625 84.660156 169.691406 C 83.480469 170.972656 82.34375 172.289062 81.246094 173.640625 C 80.148438 174.992188 79.09375 176.375 78.082031 177.789062 C 77.070312 179.207031 76.101562 180.652344 75.175781 182.128906 C 74.253906 183.601562 73.375 185.105469 72.542969 186.632812 C 71.710938 188.164062 70.925781 189.714844 70.1875 191.292969 C 69.449219 192.871094 68.761719 194.46875 68.121094 196.085938 C 67.484375 197.707031 66.894531 199.34375 66.351562 200.996094 C 65.8125 202.652344 65.324219 204.324219 64.886719 206.007812 C 64.449219 207.691406 64.066406 209.390625 63.730469 211.097656 C 63.398438 212.804688 63.117188 214.523438 62.886719 216.25 C 62.660156 217.972656 62.484375 219.707031 62.363281 221.441406 C 62.238281 223.179688 62.167969 224.917969 62.152344 226.65625 C 62.136719 228.398438 62.171875 230.136719 62.261719 231.875 C 62.351562 233.613281 62.496094 235.347656 62.691406 237.078125 C 62.886719 238.808594 63.136719 240.53125 63.4375 242.246094 C 63.738281 243.960938 64.09375 245.664062 64.5 247.355469 C 64.90625 249.046875 65.363281 250.726562 65.871094 252.390625 C 66.378906 254.058594 66.9375 255.703125 67.546875 257.335938 C 68.15625 258.964844 68.8125 260.578125 69.519531 262.167969 C 70.226562 263.757812 70.984375 265.324219 71.785156 266.871094 C 72.589844 268.414062 73.441406 269.933594 74.335938 271.425781 C 75.234375 272.917969 76.171875 274.378906 77.160156 275.816406 C 78.144531 277.25 79.171875 278.652344 80.246094 280.023438 C 81.316406 281.398438 82.429688 282.734375 83.582031 284.039062 C 84.734375 285.34375 85.929688 286.609375 87.160156 287.839844 C 88.390625 289.070312 89.65625 290.265625 90.960938 291.417969 C 92.265625 292.570312 93.601562 293.683594 94.976562 294.753906 C 96.347656 295.824219 97.75 296.855469 99.183594 297.839844 C 100.621094 298.828125 102.082031 299.765625 103.574219 300.664062 C 105.066406 301.558594 106.585938 302.410156 108.128906 303.214844 C 109.675781 304.015625 111.242188 304.773438 112.832031 305.480469 C 114.421875 306.1875 116.035156 306.84375 117.664062 307.453125 C 119.296875 308.0625 120.941406 308.621094 122.609375 309.128906 C 124.273438 309.636719 125.953125 310.09375 127.644531 310.5 C 129.335938 310.90625 131.039062 311.261719 132.753906 311.5625 C 134.46875 311.863281 136.191406 312.113281 137.921875 312.308594 C 139.652344 312.503906 141.386719 312.648438 143.125 312.738281 C 144.863281 312.828125 146.601562 312.863281 148.34375 312.847656 C 150.082031 312.832031 151.820312 312.761719 153.558594 312.636719 C 155.292969 312.515625 157.027344 312.339844 158.75 312.113281 C 160.476562 311.882812 162.195312 311.601562 163.902344 311.269531 C 165.609375 310.933594 167.308594 310.550781 168.992188 310.113281 C 170.675781 309.675781 172.347656 309.1875 174.003906 308.648438 C 175.65625 308.105469 177.292969 307.515625 178.914062 306.878906 C 180.53125 306.238281 182.128906 305.550781 183.707031 304.8125 C 185.285156 304.074219 186.835938 303.289062 188.367188 302.457031 C 189.894531 301.625 191.398438 300.746094 192.871094 299.824219 C 194.347656 298.898438 195.792969 297.929688 197.210938 296.917969 C 198.625 295.90625 200.007812 294.851562 201.359375 293.753906 C 202.710938 292.65625 204.027344 291.519531 205.308594 290.339844 C 206.59375 289.164062 207.835938 287.949219 209.042969 286.695312 C 210.25 285.441406 211.417969 284.152344 212.546875 282.824219 C 213.675781 281.5 214.765625 280.140625 215.808594 278.75 C 216.855469 277.359375 217.859375 275.933594 218.816406 274.484375 C 219.773438 273.03125 220.6875 271.546875 221.554688 270.039062 C 222.425781 268.53125 223.246094 266.996094 224.019531 265.4375 C 224.792969 263.878906 225.519531 262.296875 226.195312 260.695312 C 226.875 259.089844 227.503906 257.46875 228.082031 255.824219 C 228.660156 254.183594 229.1875 252.523438 229.664062 250.851562 C 230.140625 249.175781 230.566406 247.488281 230.9375 245.789062 C 231.3125 244.089844 231.632812 242.378906 231.902344 240.660156 C 232.171875 238.941406 232.386719 237.214844 232.550781 235.480469 C 232.714844 233.746094 232.824219 232.011719 232.882812 230.269531 C 232.941406 228.53125 232.945312 226.792969 232.894531 225.050781 C 232.847656 223.3125 232.742188 221.574219 232.589844 219.839844 C 232.433594 218.105469 232.226562 216.378906 231.964844 214.65625 C 231.703125 212.9375 231.390625 211.226562 231.023438 209.523438 C 230.65625 207.820312 230.242188 206.132812 229.773438 204.457031 C 229.304688 202.78125 228.78125 201.117188 228.210938 199.472656 C 227.640625 197.828125 227.023438 196.203125 226.351562 194.597656 C 225.683594 192.992188 224.964844 191.40625 224.195312 189.84375 C 223.429688 188.28125 222.617188 186.742188 221.753906 185.230469 C 220.894531 183.71875 219.988281 182.230469 219.035156 180.773438 L 238.347656 161.472656 L 238.347656 184.609375 L 273.441406 184.609375 L 273.441406 136.652344 L 321.398438 136.652344 L 321.398438 101.558594 L 298.214844 101.558594 Z M 183.933594 265.507812 C 182.714844 266.726562 181.4375 267.882812 180.105469 268.976562 C 178.773438 270.070312 177.390625 271.097656 175.957031 272.054688 C 174.523438 273.011719 173.046875 273.898438 171.523438 274.710938 C 170.003906 275.523438 168.449219 276.257812 166.855469 276.917969 C 165.261719 277.578125 163.640625 278.160156 161.992188 278.660156 C 160.34375 279.160156 158.671875 279.578125 156.980469 279.914062 C 155.289062 280.25 153.585938 280.503906 151.871094 280.671875 C 150.15625 280.839844 148.4375 280.925781 146.710938 280.925781 C 144.988281 280.925781 143.269531 280.839844 141.550781 280.671875 C 139.835938 280.503906 138.132812 280.25 136.441406 279.914062 C 134.753906 279.578125 133.082031 279.160156 131.433594 278.660156 C 129.78125 278.160156 128.160156 277.578125 126.570312 276.917969 C 124.976562 276.257812 123.417969 275.523438 121.898438 274.710938 C 120.378906 273.898438 118.902344 273.011719 117.46875 272.054688 C 116.035156 271.097656 114.652344 270.070312 113.320312 268.976562 C 111.988281 267.882812 110.710938 266.726562 109.492188 265.507812 C 108.273438 264.289062 107.117188 263.015625 106.023438 261.679688 C 104.929688 260.347656 103.902344 258.964844 102.945312 257.53125 C 101.988281 256.097656 101.101562 254.621094 100.289062 253.101562 C 99.476562 251.582031 98.742188 250.023438 98.082031 248.433594 C 97.421875 246.839844 96.839844 245.21875 96.339844 243.566406 C 95.839844 241.917969 95.421875 240.25 95.085938 238.558594 C 94.75 236.867188 94.496094 235.164062 94.328125 233.449219 C 94.160156 231.730469 94.074219 230.011719 94.074219 228.289062 C 94.074219 226.5625 94.160156 224.84375 94.328125 223.128906 C 94.496094 221.414062 94.75 219.710938 95.085938 218.019531 C 95.421875 216.328125 95.839844 214.65625 96.339844 213.007812 C 96.839844 211.359375 97.421875 209.738281 98.082031 208.144531 C 98.742188 206.550781 99.476562 204.996094 100.289062 203.476562 C 101.101562 201.953125 101.988281 200.476562 102.945312 199.042969 C 103.902344 197.609375 104.929688 196.226562 106.023438 194.894531 C 107.117188 193.5625 108.273438 192.285156 109.492188 191.066406 C 110.710938 189.847656 111.988281 188.691406 113.320312 187.597656 C 114.652344 186.503906 116.035156 185.480469 117.46875 184.523438 C 118.902344 183.5625 120.378906 182.679688 121.898438 181.867188 C 123.417969 181.054688 124.976562 180.316406 126.570312 179.65625 C 128.160156 178.996094 129.78125 178.417969 131.433594 177.917969 C 133.082031 177.417969 134.753906 177 136.441406 176.664062 C 138.132812 176.324219 139.835938 176.074219 141.550781 175.902344 C 143.269531 175.734375 144.988281 175.652344 146.710938 175.652344 C 148.4375 175.652344 150.15625 175.734375 151.871094 175.902344 C 153.585938 176.074219 155.289062 176.324219 156.980469 176.660156 C 158.671875 177 160.34375 177.417969 161.992188 177.917969 C 163.640625 178.417969 165.261719 178.996094 166.855469 179.65625 C 168.449219 180.316406 170.003906 181.054688 171.523438 181.867188 C 173.046875 182.679688 174.523438 183.5625 175.957031 184.523438 C 177.390625 185.480469 178.773438 186.503906 180.105469 187.597656 C 181.4375 188.691406 182.714844 189.847656 183.933594 191.066406 C 185.152344 192.285156 186.308594 193.5625 187.402344 194.894531 C 188.496094 196.226562 189.519531 197.609375 190.480469 199.042969 C 191.4375 200.476562 192.320312 201.953125 193.132812 203.476562 C 193.945312 204.996094 194.683594 206.550781 195.34375 208.144531 C 196.003906 209.738281 196.582031 211.359375 197.082031 213.007812 C 197.582031 214.65625 198.003906 216.328125 198.339844 218.019531 C 198.675781 219.710938 198.925781 221.414062 199.097656 223.128906 C 199.265625 224.84375 199.351562 226.5625 199.351562 228.289062 C 199.351562 230.011719 199.265625 231.730469 199.097656 233.449219 C 198.925781 235.164062 198.675781 236.867188 198.339844 238.558594 C 198.003906 240.25 197.582031 241.917969 197.082031 243.566406 C 196.582031 245.21875 196.003906 246.839844 195.34375 248.433594 C 194.683594 250.023438 193.945312 251.582031 193.132812 253.101562 C 192.320312 254.621094 191.4375 256.097656 190.480469 257.53125 C 189.519531 258.964844 188.496094 260.347656 187.402344 261.679688 C 186.308594 263.015625 185.152344 264.289062 183.933594 265.507812 Z M 183.933594 265.507812 " fill-opacity="1" fill-rule="nonzero"/></g></svg>