<svg xmlns="http://www.w3.org/2000/svg" xmlns:xlink="http://www.w3.org/1999/xlink" width="500" zoomAndPan="magnify" viewBox="0 0 375 374.999991" height="500" preserveAspectRatio="xMidYMid meet" version="1.0"><defs><clipPath id="632aebf4d8"><path d="M 83 37.5 L 277.613281 37.5 L 277.613281 313 L 83 313 Z M 83 37.5 " clip-rule="nonzero"/></clipPath></defs><g clip-path="url(#632aebf4d8)"><path fill="#ff5757" d="M 160.425781 311.960938 C 164.890625 311.660156 169.246094 310.777344 173.394531 309.179688 C 145.949219 303.273438 138.566406 272.761719 144.570312 248.226562 C 147.925781 234.523438 156.605469 222.359375 165.144531 211.6875 C 177.582031 196.144531 181.226562 179.519531 185.546875 160.722656 C 183.542969 174.453125 185.347656 188.667969 192.894531 200.535156 C 198.054688 208.644531 205.304688 215.203125 211.015625 222.933594 C 221.703125 237.394531 225.503906 255.1875 224.347656 273.074219 C 222.550781 300.816406 204.148438 309.777344 199.230469 307.941406 C 221.648438 316.3125 276.539062 298.75 277.332031 240.507812 C 277.566406 223.09375 274.238281 197.109375 262.667969 184.074219 C 267.347656 193.054688 263.089844 218.039062 252.722656 223.195312 C 253.324219 197.5 244.015625 181.554688 235.578125 163.496094 C 227.355469 145.898438 221.859375 125.597656 229.71875 106.902344 C 224.792969 110.902344 223.066406 118.886719 220.089844 124.300781 C 216.074219 131.601562 211.617188 138.6875 206.796875 145.488281 C 210.117188 107.765625 199.988281 69 178.628906 37.703125 C 185.605469 47.925781 185.5625 61.582031 181.992188 73.421875 C 178.417969 85.261719 171.734375 95.878906 165.984375 106.832031 C 160.226562 117.785156 154.765625 127.339844 155.105469 139.703125 C 150.800781 121.558594 151.960938 102.160156 158.402344 84.660156 C 140.566406 96.292969 137.53125 120.773438 137.144531 142.035156 C 136.753906 163.296875 136.140625 187.28125 120.480469 201.699219 C 124.273438 179.703125 125.136719 160.582031 115.796875 153.257812 C 117.847656 169.648438 111.382812 184.644531 100.378906 196.984375 C 72.84375 227.859375 81.785156 273.003906 103.152344 293.867188 C 116.191406 306.601562 140.65625 313.296875 160.425781 311.960938 " fill-opacity="1" fill-rule="nonzero"/></g></svg>