<svg xmlns="http://www.w3.org/2000/svg" xmlns:xlink="http://www.w3.org/1999/xlink" width="500" zoomAndPan="magnify" viewBox="0 0 375 374.999991" height="500" preserveAspectRatio="xMidYMid meet" version="1.0"><defs><clipPath id="7772cbbe68"><path d="M 112.5 112.5 L 262.5 112.5 L 262.5 262.5 L 112.5 262.5 Z M 112.5 112.5 " clip-rule="nonzero"/></clipPath><clipPath id="18e16f3a05"><path d="M 154 137.78125 L 223.832031 137.78125 L 223.832031 236 L 154 236 Z M 154 137.78125 " clip-rule="nonzero"/></clipPath></defs><g clip-path="url(#7772cbbe68)"><path fill="#ff5757" d="M 187.5 262.5 C 146.066406 262.5 112.5 228.703125 112.5 187.5 C 112.5 146.296875 146.066406 112.5 187.5 112.5 C 228.933594 112.5 262.5 146.066406 262.5 187.5 C 262.5 228.933594 228.703125 262.5 187.5 262.5 Z M 187.5 117.128906 C 148.609375 117.128906 117.128906 148.609375 117.128906 187.5 C 117.128906 226.390625 148.609375 257.871094 187.5 257.871094 C 226.390625 257.871094 257.871094 226.390625 257.871094 187.5 C 257.871094 148.609375 226.15625 117.128906 187.5 117.128906 Z M 187.5 117.128906 " fill-opacity="1" fill-rule="nonzero"/></g><g clip-path="url(#18e16f3a05)"><path fill="#ff5757" d="M 182.195312 235.90625 C 183.78125 235.800781 185.328125 235.484375 186.804688 234.914062 C 177.050781 232.800781 174.425781 221.894531 176.5625 213.121094 C 177.753906 208.222656 180.835938 203.875 183.871094 200.058594 C 188.289062 194.503906 189.585938 188.558594 191.121094 181.839844 C 190.40625 186.746094 191.050781 191.828125 193.730469 196.074219 C 195.5625 198.972656 198.140625 201.316406 200.171875 204.078125 C 203.964844 209.25 205.316406 215.609375 204.90625 222.003906 C 204.269531 231.921875 197.730469 235.125 195.980469 234.46875 C 203.949219 237.464844 223.449219 231.183594 223.730469 210.363281 C 223.816406 204.136719 222.632812 194.847656 218.523438 190.1875 C 220.183594 193.398438 218.671875 202.328125 214.988281 204.171875 C 215.203125 194.988281 211.894531 189.285156 208.898438 182.832031 C 205.976562 176.539062 204.023438 169.28125 206.816406 162.597656 C 205.066406 164.027344 204.453125 166.882812 203.394531 168.816406 C 201.964844 171.429688 200.382812 173.960938 198.671875 176.390625 C 199.851562 162.90625 196.25 149.046875 188.660156 137.859375 C 191.140625 141.511719 191.125 146.394531 189.855469 150.628906 C 188.585938 154.863281 186.210938 158.65625 184.167969 162.570312 C 182.125 166.488281 180.183594 169.90625 180.304688 174.324219 C 178.773438 167.835938 179.1875 160.902344 181.476562 154.644531 C 175.136719 158.804688 174.058594 167.558594 173.921875 175.15625 C 173.785156 182.757812 173.566406 191.332031 168 196.488281 C 169.347656 188.625 169.65625 181.789062 166.335938 179.171875 C 167.066406 185.03125 164.769531 190.390625 160.859375 194.800781 C 151.074219 205.839844 154.253906 221.980469 161.84375 229.4375 C 166.476562 233.992188 175.171875 236.386719 182.195312 235.90625 " fill-opacity="1" fill-rule="nonzero"/></g></svg>